<?xml version="1.0" standalone="no"?>
<!DOCTYPE svg PUBLIC "-//W3C//DTD SVG 20010904//EN"
 "http://www.w3.org/TR/2001/REC-SVG-20010904/DTD/svg10.dtd">
<svg version="1.0" xmlns="http://www.w3.org/2000/svg"
 width="512.000000pt" height="512.000000pt" viewBox="0 0 512.000000 512.000000"
 preserveAspectRatio="xMidYMid meet">
<metadata>
Created by potrace 1.14, written by Peter Selinger 2001-2017
</metadata>
<g transform="translate(0.000000,512.000000) scale(0.100000,-0.100000)"
fill="#000000" stroke="none">
<path d="M2108 2903 c-896 -896 -1627 -1632 -1625 -1636 1 -5 83 -8 182 -7
l180 1 1621 1627 c1003 1006 1616 1628 1606 1631 -9 2 -640 -622 -1628 -1610
-887 -887 -1619 -1616 -1628 -1621 -9 -5 -39 -8 -68 -6 l-52 3 1610 1614 c885
887 1611 1617 1612 1622 2 5 -2 9 -10 9 -7 0 -744 -731 -1638 -1625 l-1625
-1625 -55 0 -55 0 325 327 c179 180 903 907 1610 1616 707 708 1287 1292 1288
1297 2 6 -2 10 -10 10 -7 0 -745 -732 -1640 -1627z"/>
<path d="M4513 3928 l-55 -53 -74 0 -74 0 -1600 -1600 c-880 -880 -1600 -1603
-1600 -1607 0 -20 27 -3 84 52 63 60 72 64 136 62 l35 -2 -115 -115 c-83 -83
-109 -115 -95 -115 13 0 65 45 135 115 l115 115 60 0 59 0 -59 -60 c-48 -49
-55 -60 -38 -60 14 0 511 492 1622 1606 880 883 1601 1607 1601 1610 0 2 -27
1 -59 -3 -96 -10 -103 -1 -46 57 66 67 39 64 -32 -2z m-83 -76 c0 -4 -685
-692 -1523 -1530 l-1522 -1522 -48 0 c-27 0 -47 4 -45 9 6 17 3023 3041 3038
3045 27 7 100 6 100 -2z m-1355 -1522 l-1530 -1530 -52 0 c-29 0 -53 3 -53 8
1 4 684 692 1518 1530 l1517 1523 65 -1 65 0 -1530 -1530z"/>
</g>
</svg>
